<svg xmlns="http://www.w3.org/2000/svg" xmlns:xlink="http://www.w3.org/1999/xlink" width="47.75" height="63" viewBox="0 0 47.75 63">
  <defs>
    <style>
      .cls-1 {
        fill-rule: evenodd;
        opacity: 0.8;
        filter: url(#filter);
      }
    </style>
    <filter id="filter" x="597.125" y="1761" width="47.75" height="63" filterUnits="userSpaceOnUse">
      <feFlood result="flood" flood-color="#fff"/>
      <feComposite result="composite" operator="in" in2="SourceGraphic"/>
      <feBlend result="blend" in2="SourceGraphic"/>
    </filter>
  </defs>
  <path id="arrow.svg" class="cls-1" d="M622.166,1761.66l22.519,37.73a1.318,1.318,0,0,1,.193.69,1.375,1.375,0,0,1-.176.67,1.344,1.344,0,0,1-1.177.69H631.508l-9.274,21.74a1.354,1.354,0,0,1-2.488,0l-1.069-2.52-0.048.04a1.24,1.24,0,0,1-.264-0.77l-7.864-18.49H598.486a1.356,1.356,0,0,1-1.16-2.05l22.52-37.73A1.349,1.349,0,0,1,622.166,1761.66Zm18.314,37.07c-0.026-.03-0.059-0.06-0.08-0.09-1.175-1.99-2.827-4.77-4.652-7.85,3.7,7.16,3.654,7.29,3.527,7.68a0.9,0.9,0,0,1-.142.26h1.347Zm-2.578,0a0.4,0.4,0,0,1-.086-0.07c-2.328-3.66-6.394-10.06-10.154-15.96l7.708,15.17a0.813,0.813,0,0,1-.081.86H637.9Zm-19.956-28.6c0.015-.01.025-0.03,0.04-0.04,0.378-.19.544-0.27,1.125,0.54l0.023-.01a0.472,0.472,0,0,0,.034.09c0.464,0.67,1.182,1.88,2.43,3.98l1.184,1.99-3.875-7.63a0.78,0.78,0,0,1-.075-0.41Zm-0.193,1.27c-0.055-.1-0.086-0.15-0.093-0.16l0.027-.02a1.917,1.917,0,0,1-.128-0.45L616,1773.39a0.879,0.879,0,0,1,.315-0.14,0.817,0.817,0,0,1,.786.36l7.274,11.08C619.753,1775.71,618.229,1772.58,617.753,1771.4Zm-12.387,25.69a17.407,17.407,0,0,1-1.55-3.29l-1.721,2.88a0.11,0.11,0,0,1,.042-0.03C602.384,1796.52,602.411,1796.5,605.366,1797.09Zm-0.746-3.26,0.74-.33c0.127,0.26,2.215,4.35,2.216,4.35h0a0.811,0.811,0,0,1,.049.62,0.824,0.824,0,0,1-.143.26h2.678l-4.124-8.12a0.79,0.79,0,0,1-.075-0.41l-0.643,1.08-1.386,2.32Zm0.618,4.9c-0.585-.12-1.112-0.22-1.516-0.3a0.8,0.8,0,0,1-.151.3h1.667Zm1.118-9.19a0.8,0.8,0,0,1,1.074.25l8.3,12.24-7.589-14.94a0.78,0.78,0,0,1-.074-0.41l-1.46,2.45Zm4.648-5.72,6.93,10.51c-2.442-4.79-5-9.8-6.5-12.75h0a0.8,0.8,0,0,1-.073-0.41l-1.454,2.43a0.882,0.882,0,0,1,.314-0.14A0.821,0.821,0,0,1,611,1783.82Zm-1.454,2.48c1.382,2.24,2.943,4.76,4.517,7.31-2.9-5.68-3.979-7.87-4.356-8.8l-0.062-.09,0.02-.02a1.981,1.981,0,0,1-.141-0.47l-1.068,1.79h0A0.805,0.805,0,0,1,609.55,1786.3Zm3.232-5.42,0.093-.04c0.1,0.19.2,0.38,0.295,0.57,0.631,0.92,1.647,2.58,3.427,5.48l-3.835-7.54a0.824,0.824,0,0,1-.074-0.42l-0.384.65-0.56.94c0.015-.01.025-0.03,0.04-0.04C612.1,1780.32,612.267,1780.24,612.782,1780.88Zm1.393-2.26,0.033-.01,0.1,0.19c0.4,0.54.989,1.48,1.963,3.04,0.671,1.07,1.462,2.33,2.312,3.69l-4.373-8.6a0.78,0.78,0,0,1-.074-0.41l-1.056,1.77c0.016-.01.025-0.03,0.041-0.04C613.5,1778.06,613.667,1777.97,614.175,1778.62Zm1.437-2.5,4.652,7.32c-2.891-5.63-4.015-7.84-4.426-8.79l-0.093-.15,0.025-.01a2.119,2.119,0,0,1-.146-0.47l-1.1,1.83A0.817,0.817,0,0,1,615.612,1776.12Zm18.406,22.61c-0.021-.03-0.05-0.05-0.068-0.08,0,0-1.769-2.97-4.14-6.97,1.116,2.17,2.2,4.27,3.2,6.18a0.825,0.825,0,0,1-.074.87h1.083Zm-4.646.82a1.348,1.348,0,0,1,1.243-.82h1.036a0.151,0.151,0,0,0-.04-0.04l-7.788-11.87c3.663,7.13,5.008,9.76,5.471,10.82l0.105,0.17-0.028.02a0.82,0.82,0,0,1,.116.67,0.812,0.812,0,0,1-1.456.18l-4.729-7.44,4.853,9.55a0.824,0.824,0,0,1-.355,1.1c-0.374.19-.545,0.28-1.056-0.37l-0.035.01-0.1-.2c-0.429-.58-1.075-1.61-2.168-3.35-0.615-.98-1.321-2.11-2.071-3.31l4.566,8.98a0.823,0.823,0,0,1-.355,1.1c-0.337.17-.513,0.26-1.033-0.39l-0.058.03-0.164-.32c-0.565-.78-1.471-2.25-3.105-4.9,2.01,3.96,2.934,5.83,3.347,6.74l0.2,0.3-0.052.04a0.849,0.849,0,0,1,.147.66,0.827,0.827,0,0,1-.663.56,0.817,0.817,0,0,1-.786-0.36l-7.167-10.87c1.656,3.23,3.733,7.27,6.327,12.31,0.849,1.65.85,1.65,0.746,1.98a0.825,0.825,0,0,1-.4.47c-0.283.15-.457,0.24-1-0.41l-0.1.05q-0.027-.06-0.262-0.51c-0.732-.99-1.966-2.94-4.243-6.6l4.715,9.28a0.812,0.812,0,0,1-1.393.83l-8.07-11.91,0.292,0.69,7.4,14.55a0.836,0.836,0,0,1,0,.75c-0.184.35-.345,0.67-0.486,0.94l0.226,0.54Zm-27.05-.82a0.732,0.732,0,0,1-.1-0.13,3.436,3.436,0,0,1-.536-1.23l-0.812,1.36h1.45Zm16.9-30.74c0.016-.01.025-0.02,0.041-0.03,0.348-.18.518-0.27,1.043,0.38l0.048-.03,0.127,0.25c0.521,0.7,1.347,1.98,2.818,4.28,1.773,2.77,4.131,6.47,6.484,10.16,0.183,0.29.367,0.58,0.549,0.86-0.3-.57-0.589-1.14-0.879-1.69-6.913-13.3-6.907-13.29-6.753-13.78a0.8,0.8,0,0,1,.165-0.28l-1.857-3.11Z" transform="translate(-597.125 -1761)"/>
</svg>
