<svg xmlns="http://www.w3.org/2000/svg" width="433" height="111" viewBox="0 0 433 111">
  <defs>
    <style>
      .cls-1 {
        fill: #fff;
        fill-rule: evenodd;
      }
    </style>
  </defs>
  <path id="おわる_" data-name="おわる&gt;" class="cls-1" d="M73.837,32a8.48,8.48,0,0,0,8.49,8.49A8.636,8.636,0,0,0,91,32a8.968,8.968,0,0,0-2.529-5.961l-9.573-9.573A2.682,2.682,0,1,0,75.1,20.26l3.974,3.974A8.686,8.686,0,0,0,73.837,32Zm10.838-2.168h0a3.333,3.333,0,0,1,.9,2.168,3.089,3.089,0,0,1-3.251,3.071A3.044,3.044,0,0,1,79.256,32a3.165,3.165,0,0,1,3.071-3.071,2.991,2.991,0,0,1,2.168.9h0.181ZM27.6,45.368A26.751,26.751,0,0,0,.862,71.92,26.066,26.066,0,0,0,8.629,90.706a26.549,26.549,0,0,0,18.786,7.948,0.631,0.631,0,0,0,.361-0.181v3.251a8.5,8.5,0,0,0,2.529,5.961,8.6,8.6,0,0,0,6.141,2.529,8.639,8.639,0,0,0,8.49-8.49,8.6,8.6,0,0,0-2.529-6.141,8.316,8.316,0,0,0-5.961-2.348H33.2V50.786H47.826a21.5,21.5,0,0,1,14.992,6.142,21.37,21.37,0,0,1,0,29.985,2.682,2.682,0,0,0,3.793,3.793A26.553,26.553,0,0,0,47.826,45.368H33.2V28.93h9.032a14.271,14.271,0,1,0-14.45-14.27v8.851H8.629a2.778,2.778,0,0,0-2.709,2.71A2.66,2.66,0,0,0,8.629,28.93H27.776V45.368H27.6ZM12.423,86.913A21.2,21.2,0,0,1,27.6,50.786h0.181V93.235H27.415A21.359,21.359,0,0,1,12.423,86.913ZM36.446,98.654a2.631,2.631,0,0,1,2.168.9,2.992,2.992,0,0,1,.9,2.167,3.333,3.333,0,0,1-.9,2.168,3.752,3.752,0,0,1-2.168.9,3.8,3.8,0,0,1-2.348-.9,3.333,3.333,0,0,1-.9-2.168V98.654h3.251ZM33.2,14.66a9.022,9.022,0,0,1,9.032-8.851,8.851,8.851,0,1,1,0,17.7H33.2V14.66ZM217.859,34.891c-17.7-16.257-43.532-14.992-62.5,4.154V10.506a2.913,2.913,0,0,0-2.71-2.709c-2.709,0-2.709,1.264-2.709,2.709v29.8H126.821a3.072,3.072,0,0,0-2.709,2.709,2.912,2.912,0,0,0,2.709,2.709H148.5l-22.94,24.566c-1.445,0-1.445,2.709,0,2.709,0,1.264,2.709,1.264,2.709,0l21.676-20.411V76.978a4.533,4.533,0,0,0-2.709-1.264c-1.446-1.445-2.71-1.445-4.155,0v2.709l6.864,6.683V97.389c0,2.71,0,4.155,1.264,6.864,2.71,1.265,4.155,1.265,6.864,1.265s4.155,0,5.419-1.265c1.445-2.709,2.71-4.154,2.71-6.864a6.639,6.639,0,0,0-2.71-5.419L155.361,82.4V47.174l4.154-4.154c16.257-17.521,39.378-18.966,54.19-3.974C228.7,52.593,230.142,76.978,215.15,91.97v4.154h3.974C235.561,78.423,234.116,51.148,217.859,34.891ZM159.515,94.68c1.265,1.445,1.265,1.445,1.265,2.709,0,1.445,0,1.445-1.265,2.71h-4.154V90.525ZM329.205,0.932a8.6,8.6,0,0,0-6.141,2.529l-9.032,9.032H270.319A2.778,2.778,0,0,0,267.61,15.2a2.66,2.66,0,0,0,2.709,2.71h38.294L289.828,36.7H277a8.6,8.6,0,0,0-6.142,2.529,8.446,8.446,0,0,0-2.348,6.141,8.318,8.318,0,0,0,2.348,5.961A8.6,8.6,0,0,0,277,53.857a8.5,8.5,0,0,0,5.961-2.529L292,42.3a29.017,29.017,0,0,1,28,29.082A28.735,28.735,0,0,1,303.014,97.75a11.546,11.546,0,0,0,1.083-5.058,13.186,13.186,0,1,0-13.186,13.186,34.582,34.582,0,0,0,5.961-68.64L316.2,17.912h13a9.156,9.156,0,0,0,5.961-2.348A8.6,8.6,0,0,0,337.7,9.422,8.639,8.639,0,0,0,329.205.932Zm-46.061,91.76a7.767,7.767,0,1,1,7.767,7.767A7.71,7.71,0,0,1,283.144,92.693ZM279.17,47.535a3.751,3.751,0,0,1-2.167.9,2.993,2.993,0,0,1-2.168-.9,2.863,2.863,0,0,1-.9-2.168A3.09,3.09,0,0,1,277,42.116h7.406C281.7,44.826,279.17,47.535,279.17,47.535Zm52.2-35.945a2.632,2.632,0,0,1-2.168.9h-7.587c2.71-2.529,5.419-5.238,5.419-5.238a2.993,2.993,0,0,1,2.168-.9,3.333,3.333,0,0,1,2.168.9,3.337,3.337,0,0,1,.9,2.168A3,3,0,0,1,331.373,11.59Zm90.884,43.079-1.572,1.572-30.13-30.13a1.9,1.9,0,0,0-2.751,0,2.1,2.1,0,0,0-.655,1.441,1.612,1.612,0,0,0,.655,1.31s27.641,27.641,30.13,30.261L387.8,89.252a1.612,1.612,0,0,0-.655,1.31A2.1,2.1,0,0,0,387.8,92a1.9,1.9,0,0,0,2.751,0l30.13-30.13,1.572,1.572a6.206,6.206,0,0,0,8.777-8.777,6.164,6.164,0,0,0-4.323-1.834A6.238,6.238,0,0,0,422.257,54.669Zm6.026,2.751a2.569,2.569,0,0,1,0,3.275,2.389,2.389,0,0,1-3.144,0s-0.917-.917-1.7-1.572l1.7-1.7A2.389,2.389,0,0,1,428.283,57.42Z"/>
</svg>
