<svg xmlns="http://www.w3.org/2000/svg" width="542.219" height="81.31" viewBox="0 0 542.219 81.31">
  <defs>
    <style>
      .cls-1 {
        fill: #fff;
        fill-rule: evenodd;
      }
    </style>
  </defs>
  <path id="Taptostart.svg" class="cls-1" d="M395.86,1858.98H351.431a1.62,1.62,0,0,0,0,3.24h20.6v39.47l-5.5,5.39a4.959,4.959,0,0,0-1.4,3.56,5.03,5.03,0,0,0,1.4,3.66,5.14,5.14,0,0,0,3.667,1.51,5.157,5.157,0,0,0,5.068-5.17v-7.66l6.47-6.47a1.69,1.69,0,0,0,0-2.37,1.785,1.785,0,0,0-2.264,0l-4.206,4.31v-36.23h20.6A1.62,1.62,0,0,0,395.86,1858.98Zm-23.832,51.66a1.771,1.771,0,0,1-.539,1.29v0.11a2.01,2.01,0,0,1-1.294.54,1.8,1.8,0,0,1-1.294-.54,1.777,1.777,0,0,1-.539-1.4,1.717,1.717,0,0,1,.539-1.3s1.51-1.51,3.127-3.12v4.42Zm1.725,3.66h0Zm47.235,1.41a17.939,17.939,0,0,0,16.284-10.46,17.937,17.937,0,0,0,16.283,10.46,1.531,1.531,0,0,0,1.618-1.62,1.592,1.592,0,0,0-1.618-1.62,14.683,14.683,0,0,1-14.666-14.67v-13.47a1.618,1.618,0,1,0-3.235,0v13.47a14.666,14.666,0,1,1-29.332,0,14.432,14.432,0,0,1,4.206-10.35,14.6,14.6,0,0,1,10.46-4.31,1.62,1.62,0,0,0,0-3.24,17.7,17.7,0,0,0-12.725,5.29,17.333,17.333,0,0,0-5.176,12.61A17.859,17.859,0,0,0,420.988,1915.71Zm45.079,19.62v-7.76l4.744-4.75a1.777,1.777,0,0,0,0-2.26,1.686,1.686,0,0,0-2.372,0l-2.372,2.48v-14.99a17.905,17.905,0,1,0,0-20.49v-6.04a1.663,1.663,0,0,0-1.618-1.62,1.592,1.592,0,0,0-1.618,1.62v44.75l-5.391,5.4a5.121,5.121,0,0,0-1.51,3.66,5.012,5.012,0,0,0,1.51,3.45,4.89,4.89,0,0,0,3.558,1.51,5.079,5.079,0,0,0,3.559-1.51A5.017,5.017,0,0,0,466.067,1935.33Zm14.665-52.19a14.665,14.665,0,1,1-14.665,14.66A14.681,14.681,0,0,1,480.732,1883.14Zm-17.9,52.19a1.849,1.849,0,0,1-1.833,1.73h0a1.8,1.8,0,0,1-1.294-.54,1.649,1.649,0,0,1-.539-1.19,1.44,1.44,0,0,1,.539-1.29s1.51-1.62,3.127-3.24v4.53ZM566.9,1902.87a1.592,1.592,0,0,0-1.618,1.62,8.055,8.055,0,0,1-8.087,7.98,7.962,7.962,0,0,1-7.98-7.98v-22.21h11.862a1.592,1.592,0,0,0,1.617-1.62,1.53,1.53,0,0,0-1.617-1.62H549.212v-9.6a1.618,1.618,0,0,0-3.235,0v9.6H534.115a1.531,1.531,0,0,0-1.618,1.62,1.592,1.592,0,0,0,1.618,1.62h11.862v22.21a11.269,11.269,0,0,0,22.538,0A1.663,1.663,0,0,0,566.9,1902.87Zm56.94-20.92a1.574,1.574,0,0,0-2.264,0l-3.451,3.45-1.294-1.4a5.6,5.6,0,0,0-3.559-1.51A5.136,5.136,0,0,0,609.6,1884a5.216,5.216,0,0,0,0,7.23,5.136,5.136,0,0,0,3.666,1.51h0a5.079,5.079,0,0,0,3.559-1.51l1.078-1.08a14.385,14.385,0,0,1,2.049,9.38,15.009,15.009,0,0,1-16.5,13.05,15.257,15.257,0,0,1-9.921-5.61,14.268,14.268,0,0,1-3.019-10.89,14.457,14.457,0,0,1,5.5-9.92,14.953,14.953,0,0,1,9.166-3.13,1.656,1.656,0,0,0,1.618-1.62,1.582,1.582,0,0,0-1.618-1.61,17.9,17.9,0,0,0-17.9,15.85,18,18,0,0,0,3.775,13.37,17.572,17.572,0,0,0,11.97,6.69,17.974,17.974,0,0,0,13.371-3.67,18.082,18.082,0,0,0,3.883-24.26l3.558-3.56A1.569,1.569,0,0,0,623.837,1881.95Zm-9.274,7.01a1.958,1.958,0,0,1-1.294.54h0a1.762,1.762,0,0,1-1.294-.54,1.88,1.88,0,0,1,0-2.69,1.762,1.762,0,0,1,1.294-.54,2.084,2.084,0,0,1,1.294.64l1.294,1.3C615.21,1888.32,614.563,1888.96,614.563,1888.96Zm56.833,7.12c-8.627,0-10.352-2.59-10.352-6.58,0-4.53,2.264-6.68,7.117-6.68H672.8c6.578,0,7.009,3.45,7.117,3.55a1.651,1.651,0,0,0,1.726,1.51,1.564,1.564,0,0,0,1.4-1.72c0-.33-0.54-6.58-10.245-6.58h-4.637c-6.578,0-10.352,3.67-10.352,9.92,0,8.74,7.225,9.81,13.587,9.81,1.726,0,10.245.33,10.245,6.58a6.6,6.6,0,0,1-1.618,4.86,7.069,7.069,0,0,1-5.5,1.72l-6.685.11c-6.471,0-7.01-3.34-7.01-3.56v-2.48a1.663,1.663,0,0,0-1.617-1.62,1.592,1.592,0,0,0-1.618,1.62v2.59c0,0.32.539,6.68,10.245,6.68l6.685-.1a10.361,10.361,0,0,0,7.873-2.7,10.034,10.034,0,0,0,2.48-7.12C684.876,1898.67,677.651,1896.08,671.4,1896.08Zm52.95,6.79a1.592,1.592,0,0,0-1.618,1.62,8.056,8.056,0,0,1-8.088,7.98,7.963,7.963,0,0,1-7.98-7.98v-22.21h11.862a1.592,1.592,0,0,0,1.618-1.62,1.531,1.531,0,0,0-1.618-1.62H706.66v-9.6a1.618,1.618,0,0,0-3.235,0v9.6H691.563a1.531,1.531,0,0,0-1.618,1.62,1.592,1.592,0,0,0,1.618,1.62h11.862v22.21a11.269,11.269,0,0,0,22.538,0A1.663,1.663,0,0,0,724.346,1902.87Zm37.421,12.84a17.939,17.939,0,0,0,16.284-10.46,17.937,17.937,0,0,0,16.283,10.46,1.53,1.53,0,0,0,1.617-1.62,1.592,1.592,0,0,0-1.617-1.62,14.683,14.683,0,0,1-14.666-14.67v-13.47a1.618,1.618,0,1,0-3.235,0v13.47a14.666,14.666,0,1,1-29.332,0,14.428,14.428,0,0,1,4.206-10.35,14.6,14.6,0,0,1,10.46-4.31,1.62,1.62,0,0,0,0-3.24,17.7,17.7,0,0,0-12.725,5.29,17.329,17.329,0,0,0-5.176,12.61A17.859,17.859,0,0,0,761.767,1915.71Zm68.587-34.73-18.117,18.12v-17.58a1.59,1.59,0,0,0-1.617-1.62,1.531,1.531,0,0,0-1.618,1.62v20.81l-5.5,5.4a5.03,5.03,0,0,0-1.4,3.66,4.958,4.958,0,0,0,1.4,3.56,5.14,5.14,0,0,0,3.667,1.51,5.079,5.079,0,0,0,3.559-1.51h0a5.068,5.068,0,0,0,1.509-3.56v-7.76l20.381-20.38A1.6,1.6,0,1,0,830.354,1880.98ZM809,1911.39a2.024,2.024,0,0,1-.539,1.3,2.265,2.265,0,0,1-1.294.54h0a1.8,1.8,0,0,1-1.294-.54,1.592,1.592,0,0,1-.539-1.3,1.44,1.44,0,0,1,.539-1.29s1.51-1.62,3.127-3.24v4.53Zm81.419-8.52a1.592,1.592,0,0,0-1.617,1.62,8.056,8.056,0,0,1-8.088,7.98,7.963,7.963,0,0,1-7.98-7.98v-22.21H884.6a1.592,1.592,0,0,0,1.618-1.62,1.531,1.531,0,0,0-1.618-1.62H872.736v-9.6a1.618,1.618,0,0,0-3.235,0v9.6H857.639a1.531,1.531,0,0,0-1.618,1.62,1.592,1.592,0,0,0,1.618,1.62H869.5v22.21a11.269,11.269,0,0,0,22.538,0A1.663,1.663,0,0,0,890.421,1902.87Z" transform="translate(-349.812 -1858.97)"/>
</svg>
